<svg id="visual" viewBox="0 0 900 600" width="900" height="600" xmlns="http://www.w3.org/2000/svg" xmlns:xlink="http://www.w3.org/1999/xlink" version="1.1"><path d="M0 512L30 508.2C60 504.3 120 496.7 180 494.8C240 493 300 497 360 503.8C420 510.7 480 520.3 540 517.8C600 515.3 660 500.7 720 497.3C780 494 840 502 870 506L900 510L900 601L870 601C840 601 780 601 720 601C660 601 600 601 540 601C480 601 420 601 360 601C300 601 240 601 180 601C120 601 60 601 30 601L0 601Z" fill="#d3e8ff"></path><path d="M0 513L30 512.8C60 512.7 120 512.3 180 515.2C240 518 300 524 360 525.5C420 527 480 524 540 526C600 528 660 535 720 539.8C780 544.7 840 547.3 870 548.7L900 550L900 601L870 601C840 601 780 601 720 601C660 601 600 601 540 601C480 601 420 601 360 601C300 601 240 601 180 601C120 601 60 601 30 601L0 601Z" fill="#7cb2fa"></path><path d="M0 565L30 563C60 561 120 557 180 553.2C240 549.3 300 545.7 360 546.7C420 547.7 480 553.3 540 553.2C600 553 660 547 720 544.5C780 542 840 543 870 543.5L900 544L900 601L870 601C840 601 780 601 720 601C660 601 600 601 540 601C480 601 420 601 360 601C300 601 240 601 180 601C120 601 60 601 30 601L0 601Z" fill="#2078ef"></path></svg>